<svg width="1869" height="632" viewBox="0 0 1869 632" fill="none" xmlns="http://www.w3.org/2000/svg">
<path d="M1749.07 313.929L1810.07 139.43C1842.07 -14.5706 1615.07 -41.5703 1561.57 85.9294C1537.9 149.596 1488.97 284.329 1482.57 313.929C1476.17 343.529 1479.9 367.263 1482.57 375.429C1498.57 439.429 1579.57 453.429 1621.07 444.429C1633.57 443.429 1662.87 437.429 1680.07 421.429C1697.27 405.429 1706.23 402.096 1708.57 402.429C1712.9 403.096 1727.07 404.029 1749.07 402.429C1771.07 400.829 1794.23 389.763 1803.07 384.429C1831.23 361.929 1882.97 309.429 1864.57 279.429C1843.57 253.429 1820.9 266.929 1810.57 279.429C1804.23 292.763 1785.77 322.829 1762.57 336.429C1739.37 350.029 1743.9 327.096 1749.07 313.929Z" fill="white" stroke="black"/>
<path d="M1560.57 327.43L1633.07 115.43C1662.67 44.6305 1746.57 63.4296 1731.57 121.43L1710.57 183.43C1695.57 230.93 1685.11 278.237 1673.07 276.43C1653.07 273.43 1632.88 283.43 1629.57 287.43C1610.37 310.63 1617.9 330.264 1623.57 337.93C1624.07 340.43 1665.77 371.23 1610.57 380.43C1555.37 389.63 1554.23 348.93 1560.57 327.43Z" fill="#EB6424" stroke="black"/>
<path d="M397.068 329.431L490.568 68.9311C501.368 33.7323 539.734 15.5973 557.568 10.9297C569.068 4.92969 608.568 1.92993 627.568 10.9297C650.609 21.8436 651.568 24.9297 662.068 33.4299C670.468 40.2301 674.234 36.2633 675.068 33.4299C679.234 20.4299 695.368 -4.07007 726.568 1.92993C757.768 7.92993 754.568 45.0966 749.068 62.9299L722.568 139.431L675.568 264.93C664.901 284.43 644.968 331.23 644.568 356.43C644.168 381.63 669.068 383.931 681.568 381.931C692.568 379.932 722.068 367.43 726.568 345.43C730.669 325.38 729.068 311.571 730.568 307.43L767.568 196.43C772.068 174.93 788.268 130.331 805.068 93.9299C821.868 57.5292 849.068 34.4303 860.568 27.4309C910.568 -5.07007 987.068 8.93042 1006.57 27.4309C1018.9 37.7642 1043.28 56.4309 1046.57 79.4309C1048.97 96.2309 1047.57 114.431 1046.57 121.431C1045.4 131.098 1035.77 150.831 1006.57 152.431C977.368 154.031 969.401 134.431 969.068 124.431C969.901 110.264 963.568 82.8309 931.568 86.4309C899.568 90.0309 879.234 123.264 873.068 139.431L832.568 249.931C824.234 269.764 806.868 314.731 804.068 335.931C801.268 357.131 817.734 368.173 824.068 371.007C831.734 372.173 847.868 373.746 869.068 371.007C890.268 368.267 906.568 346.481 912.068 335.931C921.568 310.764 941.868 254.531 947.068 230.931C952.268 207.331 963.901 196.431 969.068 193.931C973.068 190.598 986.168 185.331 1006.57 190.931C1026.97 196.531 1026.4 226.598 1023.57 240.931L1006.57 294.431C998.568 316.931 980.068 365.931 970.068 381.931C960.068 397.931 965.901 400.931 970.068 400.431C978.068 394.431 1001.57 389.431 1025.57 352.431C1027.97 324.831 1034.23 302.264 1037.07 294.431L1085.57 152.431C1100.37 93.6309 1126.73 58.0976 1137.07 47.9309C1160.07 22.4309 1185.57 11.2642 1202.07 9.43091C1215.57 7.93091 1247.17 5.83091 1265.57 9.43091C1283.97 13.0309 1301.23 22.5976 1307.57 26.9309C1317.23 33.2642 1338.27 52.1309 1345.07 76.9309C1348.57 101.431 1348.57 112.098 1348.07 114.931C1346.07 128.264 1334.77 154.331 1305.57 151.931C1276.37 149.531 1268.4 126.264 1268.07 114.931C1266.57 103.431 1258.57 92.4309 1255.07 90.4309C1249.07 86.7643 1236.18 82.0215 1217.07 90.4309C1192.07 101.431 1180.57 121.931 1176.57 134.431L1142.57 230.931L1116.57 299.431C1111.07 316.931 1107.91 345.431 1111.07 352.431C1123.79 380.652 1158.61 374.991 1174.27 371.007C1174.37 370.981 1174.47 370.956 1174.57 370.931C1209.57 350.931 1217.57 325.931 1223.07 313.931L1259.57 209.431C1278.57 169.431 1339.57 191.431 1326.57 233.431C1325.77 240.231 1314.57 269.931 1309.07 283.931C1289.07 336.931 1273.57 373.931 1268.57 385.431C1264.57 394.631 1262.57 402.322 1272.57 399.931C1280.23 398.098 1301.17 389.931 1323.57 359.931C1345.97 329.931 1359.57 295.764 1363.57 282.431L1397.07 182.931L1446.57 35.4311C1467.57 -15.0691 1541.07 1.43061 1520.07 64.4311L1459.07 239.931L1418.57 361.931C1409.77 397.131 1392.4 426.598 1385.57 433.431C1380.73 438.264 1368.57 447.731 1358.57 446.931C1348.57 446.131 1341.07 441.931 1338.57 439.931C1330.97 436.331 1324.4 438.431 1322.07 439.931C1289.57 467.931 1252.57 472.431 1243.57 474.931C1236.37 476.931 1233.23 483.431 1232.57 486.431L1211.57 553.931C1202.73 570.764 1175.97 608.131 1139.57 622.931C1103.17 637.731 1064.4 629.098 1049.57 622.931C1039.9 617.764 1017.57 601.331 1005.57 576.931C993.568 552.531 1000.57 523.431 1005.57 511.931C1010.57 504.598 1024.67 486.931 1041.07 474.931C1057.47 462.931 1094.9 454.598 1111.57 451.931C1123.97 448.331 1120.23 445.764 1115.07 444.431C1107.73 443.764 1091.97 441.931 1087.57 439.931C1082.07 437.431 1066.57 427.431 1060.07 419.431C1054.87 413.031 1049.9 416.764 1048.07 419.431C1000.07 458.431 990.068 462.431 982.568 465.431C977.633 467.405 957.568 474.931 945.068 474.931C935.068 474.931 930.901 482.598 930.068 486.431C911.668 541.231 896.734 575.264 891.568 585.431C862.568 633.431 788.568 630.431 784.568 630.431C780.568 630.431 723.068 621.931 705.568 585.431C691.568 556.231 699.734 522.931 705.568 509.931C736.568 467.931 768.901 461.931 795.568 455.431C812.568 451.287 817.234 449.931 814.568 448.931C793.368 444.131 777.068 434.931 771.568 430.931C765.568 425.764 753.168 414.831 751.568 412.431C749.968 410.031 747.568 411.431 746.568 412.431L729.568 427.931C719.568 437.431 692.568 444.731 666.568 445.931C640.568 447.131 623.401 441.764 618.068 438.931C609.401 434.098 594.568 423.431 586.568 415.431C580.601 409.465 574.734 412.431 571.568 415.431C551.734 432.431 498.468 460.431 444.068 436.431C389.668 412.431 390.068 355.098 397.068 329.431Z" fill="white"/>
<path d="M1174.57 370.931C1209.57 350.931 1217.57 325.931 1223.07 313.931L1259.57 209.431C1278.57 169.431 1339.57 191.431 1326.57 233.431C1325.77 240.231 1314.57 269.931 1309.07 283.931C1289.07 336.931 1273.57 373.931 1268.57 385.431C1264.57 394.631 1262.57 402.322 1272.57 399.931C1280.23 398.098 1301.17 389.931 1323.57 359.931C1345.97 329.931 1359.57 295.764 1363.57 282.431L1397.07 182.931L1446.57 35.4311C1467.57 -15.0691 1541.07 1.43061 1520.07 64.4311L1459.07 239.931L1418.57 361.931C1409.77 397.131 1392.4 426.598 1385.57 433.431C1380.73 438.264 1368.57 447.731 1358.57 446.931C1348.57 446.131 1341.07 441.931 1338.57 439.931C1330.97 436.331 1324.4 438.431 1322.07 439.931C1289.57 467.931 1252.57 472.431 1243.57 474.931C1236.37 476.931 1233.23 483.431 1232.57 486.431L1211.57 553.931C1202.73 570.764 1175.97 608.131 1139.57 622.931C1103.17 637.731 1064.4 629.098 1049.57 622.931C1039.9 617.764 1017.57 601.331 1005.57 576.931C993.568 552.531 1000.57 523.431 1005.57 511.931C1010.57 504.598 1024.67 486.931 1041.07 474.931C1057.47 462.931 1094.9 454.598 1111.57 451.931C1123.97 448.331 1120.23 445.764 1115.07 444.431C1107.73 443.764 1091.97 441.931 1087.57 439.931C1082.07 437.431 1066.57 427.431 1060.07 419.431C1054.87 413.031 1049.9 416.764 1048.07 419.431C1000.07 458.431 990.068 462.431 982.568 465.431C977.633 467.405 957.568 474.931 945.068 474.931C935.068 474.931 930.901 482.598 930.068 486.431C911.668 541.231 896.734 575.264 891.568 585.431C862.568 633.431 788.568 630.431 784.568 630.431C780.568 630.431 723.068 621.931 705.568 585.431C691.568 556.231 699.734 522.931 705.568 509.931C736.568 467.931 768.901 461.931 795.568 455.431C812.568 451.287 817.234 449.931 814.568 448.931C793.368 444.131 777.068 434.931 771.568 430.931C765.568 425.764 753.168 414.831 751.568 412.431C749.968 410.031 747.568 411.431 746.568 412.431L729.568 427.931C719.568 437.431 692.568 444.731 666.568 445.931C640.568 447.131 623.401 441.764 618.068 438.931C609.401 434.098 594.568 423.431 586.568 415.431C580.601 409.465 574.734 412.431 571.568 415.431C551.734 432.431 498.468 460.431 444.068 436.431C389.668 412.431 390.068 355.098 397.068 329.431L490.568 68.9311C501.368 33.7323 539.734 15.5973 557.568 10.9297C569.068 4.92969 608.568 1.92993 627.568 10.9297C650.609 21.8436 651.568 24.9297 662.068 33.4299C670.468 40.2301 674.234 36.2633 675.068 33.4299C679.234 20.4299 695.368 -4.07007 726.568 1.92993C757.768 7.92993 754.568 45.0966 749.068 62.9299L722.568 139.431L675.568 264.93C664.901 284.43 644.968 331.23 644.568 356.43C644.168 381.63 669.068 383.931 681.568 381.931C692.568 379.932 722.068 367.43 726.568 345.43C730.669 325.38 729.068 311.571 730.568 307.43L767.568 196.43C772.068 174.93 788.268 130.331 805.068 93.9299C821.868 57.5292 849.068 34.4303 860.568 27.4309C910.568 -5.07007 987.068 8.93042 1006.57 27.4309C1018.9 37.7642 1043.28 56.4309 1046.57 79.4309C1048.97 96.2309 1047.57 114.431 1046.57 121.431C1045.4 131.098 1035.77 150.831 1006.57 152.431C977.368 154.031 969.401 134.431 969.068 124.431C969.901 110.264 963.568 82.8309 931.568 86.4309C899.568 90.0309 879.234 123.264 873.068 139.431L832.568 249.931C824.234 269.764 806.868 314.731 804.068 335.931C801.268 357.131 817.734 368.173 824.068 371.007C831.734 372.173 847.868 373.746 869.068 371.007C890.268 368.267 906.568 346.481 912.068 335.931C921.568 310.764 941.868 254.531 947.068 230.931C952.268 207.331 963.901 196.431 969.068 193.931C973.068 190.598 986.168 185.331 1006.57 190.931C1026.97 196.531 1026.4 226.598 1023.57 240.931L1006.57 294.431C998.568 316.931 980.068 365.931 970.068 381.931C960.068 397.931 965.901 400.931 970.068 400.431C978.068 394.431 1001.57 389.431 1025.57 352.431C1027.97 324.831 1034.23 302.264 1037.07 294.431L1085.57 152.431C1100.37 93.6309 1126.73 58.0976 1137.07 47.9309C1160.07 22.4309 1185.57 11.2642 1202.07 9.43091C1215.57 7.93091 1247.17 5.83091 1265.57 9.43091C1283.97 13.0309 1301.23 22.5976 1307.57 26.9309C1317.23 33.2642 1338.27 52.1309 1345.07 76.9309C1348.57 101.431 1348.57 112.098 1348.07 114.931C1346.07 128.264 1334.77 154.331 1305.57 151.931C1276.37 149.531 1268.4 126.264 1268.07 114.931C1266.57 103.431 1258.57 92.4309 1255.07 90.4309C1249.07 86.7643 1236.18 82.0215 1217.07 90.4309C1192.07 101.431 1180.57 121.931 1176.57 134.431L1142.57 230.931L1116.57 299.431C1111.07 316.931 1107.91 345.431 1111.07 352.431C1123.79 380.652 1158.61 374.991 1174.27 371.007M1174.57 370.931C1174.47 370.956 1174.37 370.981 1174.27 371.007M1174.57 370.931L1174.27 371.007" stroke="black"/>
<path d="M565.068 335.929L635.568 144.93C642.568 124.929 639.068 115.43 636.568 106.426C616.818 71.0949 571.296 73.6517 549.568 124.929L485.068 308.929C456.068 393.429 548.068 377.929 565.068 335.929Z" fill="#EB6424" stroke="black"/>
<path d="M259.568 391.928L388.568 31.9284C411.568 -16.0703 470.568 7.92953 459.068 52.4284L331.568 420.43C298.568 479.43 242.068 433.43 259.568 391.928Z" fill="white" stroke="black"/>
<path d="M86.2569 355.43L152.568 66.9289C167.068 -14.0703 87.5676 -8.07025 73.0676 33.4289C73.0676 33.4289 2.56757 340.93 1.06757 374.43C-0.432432 407.93 23.0676 438.129 69.0676 446.929C115.068 455.729 150.901 424.596 163.068 407.929L353.068 66.9289C373.068 -1.57162 316.068 -9.57105 285.068 33.4289L98.757 369.43C87.257 383.43 83.757 364.43 86.2569 355.43Z" fill="white" stroke="black"/>
<path d="M838.568 505.93C812.234 510.096 754.52 537.796 781.068 561.93C808.567 586.93 838.568 511.93 838.568 505.93Z" stroke="black"/>
<path d="M838.568 507.429C811.568 507.429 753.068 537.429 779.568 561.429C806.624 585.933 847.068 514.929 838.568 507.429Z" fill="#EB6424" stroke="black"/>
<path d="M1139.3 507.43C1112.3 507.43 1053.8 537.43 1080.3 561.43C1107.35 585.934 1147.8 514.93 1139.3 507.43Z" fill="#EB6424" stroke="black"/>
</svg>
