<svg width="1920" height="1028" viewBox="0 0 1920 1028" fill="none" xmlns="http://www.w3.org/2000/svg">
<path d="M1775.5 132.297C1801.5 123.182 1882 103.542 1919 94.8608V138.265C1890.83 144.414 1828.5 158.122 1804.5 163.764C1780.5 169.407 1746.5 196.136 1732.5 208.796C1717.5 228.689 1689.9 275.204 1699.5 302.114C1709.1 329.024 1732.5 356.007 1743 366.135C1746.33 376.986 1751 400.532 1743 407.911C1735 415.289 1702.67 468.857 1687.5 494.718C1677.9 538.529 1683.5 576.632 1687.5 590.207C1696.5 614.983 1716.6 665.729 1725 670.504C1733.4 675.278 1762.83 708.301 1776.5 724.216C1782.83 731.088 1795.5 754.382 1795.5 792.577C1795.5 830.772 1726.5 874.321 1692 891.321L1609.5 943.405C1577.1 953.388 1576.67 1003.63 1580.5 1027.5C1558 984.639 1582.5 948.288 1596.5 930.927C1607.7 917.037 1653.17 885.714 1674.5 871.789C1691.67 865.098 1732.2 843.794 1757 812.109C1781.8 780.424 1771 745.737 1762.5 732.354C1752.17 718.248 1728.1 686.129 1714.5 670.504C1700.9 654.878 1682.17 610.462 1674.5 590.207C1669.17 573.207 1664.3 527.597 1687.5 481.155C1710.7 434.713 1697.17 385.124 1687.5 366.135C1655.9 291.046 1682.33 219.104 1699.5 192.519C1714 176.243 1749.5 141.411 1775.5 132.297Z" fill="#BABD8D" stroke="#BABD8D"/>
<path d="M1761.5 510.995C1796.7 444.587 1878.83 431.602 1915.5 433.41V390.549L1861 397.06C1815.67 411.889 1723.1 460.646 1715.5 537.037C1707.9 613.428 1755 659.291 1779.5 672.674C1792.33 679.004 1820.2 707.397 1829 770.332C1837.8 833.268 1799.67 871.789 1779.5 883.182C1751 898.374 1682.6 934.724 1637 958.596C1591.4 982.468 1602.33 995.67 1613.5 999.287C1637.5 987.713 1696 960.115 1738 942.32C1780 924.524 1821.17 881.735 1836.5 862.565C1843.33 853.885 1857.8 824.479 1861 776.3C1864.2 728.122 1817.33 674.844 1793.5 654.227C1768.17 634.153 1726.3 577.402 1761.5 510.995Z" fill="#BABD8D" stroke="#BABD8D"/>
<path d="M1916.5 534.324V636.866C1890.5 622.036 1841.9 585.432 1855.5 557.654C1869.1 529.876 1901.83 530.527 1916.5 534.324Z" fill="#BABD8D" stroke="#BABD8D"/>
<path d="M1755.5 84.0096C1770.3 48.4185 1871 46.7547 1919.5 50.3716V62.3078C1913.83 58.0166 1887.9 54.7217 1829.5 75.8715C1771.1 97.0213 1755.83 90.1093 1755.5 84.0096Z" fill="#BABD8D" stroke="#BABD8D"/>
<path d="M92 74.2439C91.2 65.5631 136.333 22.1593 159 1.54248H178L147 33.0102C99 68.8184 92 139.35 91 144.775C90 150.201 88 243.519 86 251.657C84.4 258.167 80 272.093 78 278.242C74.4 318.173 26.1667 376.624 2.5 400.858V357.996C9.66667 349.496 26.7 328.373 37.5 311.88C48.3 295.386 60.3333 267.029 65 254.912C70.6667 236.285 81.2 188.721 78 147.488C74.8 106.254 86 81.4778 92 74.2439Z" fill="#BABD8D" stroke="#BABD8D"/>
<path d="M134 146.403C130.4 97.7904 145.167 75.8715 153 70.9885C155.5 76.9565 153 116.563 150.5 134.467C148.5 148.79 159.667 213.498 165.5 244.061C165.9 294.844 181.333 310.433 189 311.88C227 331.411 229.833 336.656 226.5 336.837C186.5 339.007 167 318.933 159.5 311.88C153.5 306.237 148.667 276.252 147 261.965C144.167 243.7 137.6 195.015 134 146.403Z" fill="#BABD8D" stroke="#BABD8D"/>
<path d="M200.5 179.498C182.5 111.788 213 32.2869 230.5 1H263C235.8 24.8721 223.333 87.2651 220.5 115.478C216.9 222.685 261 268.657 283.5 278.242L345 317.305C380.541 345.471 359.902 376.341 345.073 388.32C392.573 387.535 365.179 388.026 345 388.379C345.024 388.359 345.049 388.34 345.073 388.32C343.926 388.339 342.736 388.358 341.5 388.379C289.1 389.247 202.667 395.251 166 398.145C96.8 417.242 60.5 462.889 51 483.325C40.1667 501.771 28 548.539 66 588.036C104 627.534 163.167 634.876 188 633.61C202.833 635.419 237.6 634.804 258 617.877C278.4 600.949 336.5 596.717 363 596.717C390.167 588.579 441.4 575.449 429 588.036C416.6 600.624 400.833 607.749 394.5 609.738C331.3 625.364 321.833 648.078 325 657.482C349 699.801 394 690.035 407 690.035C417.4 690.035 429.333 648.078 434 627.1C442.833 619.685 476.4 594.656 540 553.856C603.6 513.056 620.5 430.878 621 394.889C619.167 371.56 607.1 312.531 573.5 263.05C539.9 213.57 559.5 206.987 573.5 209.881C657.1 280.195 649 418.581 634.5 478.984C629.5 546.803 440.5 719.875 423.5 738.322C409.9 753.079 395.5 744.471 390 738.322C382 732.354 357.8 714.341 325 690.035C292.2 665.729 233.667 662.185 208.5 663.451C192 663.812 149.2 660.955 110 646.632C70.8 632.308 37.6667 595.09 26 578.271C18.3333 568.143 4.20001 538.448 9.00001 500.686C13.8 462.925 52 425.272 70.5 411.166C85.6667 402.123 121.8 382.085 145 374.273C168.2 366.46 214.667 366.677 235 367.762C258.167 371.922 310.3 377.745 333.5 367.762C356.7 357.779 345.833 343.347 337.5 337.379C319.1 333.907 285.833 316.039 271.5 307.539C225.5 265.221 223 264.136 200.5 179.498Z" fill="#BABD8D"/>
<path d="M230.5 1C213 32.2869 182.5 111.788 200.5 179.498C223 264.136 225.5 265.221 271.5 307.539C285.833 316.039 319.1 333.907 337.5 337.379C345.833 343.347 356.7 357.779 333.5 367.762C310.3 377.745 258.167 371.922 235 367.762C214.667 366.677 168.2 366.46 145 374.273C121.8 382.085 85.6667 402.123 70.5 411.166C52 425.272 13.8 462.925 9.00001 500.686C4.20001 538.448 18.3333 568.143 26 578.271C37.6667 595.09 70.8 632.308 110 646.632C149.2 660.955 192 663.812 208.5 663.451C233.667 662.185 292.2 665.729 325 690.035C357.8 714.341 382 732.354 390 738.322C395.5 744.471 409.9 753.079 423.5 738.322C440.5 719.875 629.5 546.803 634.5 478.984C649 418.581 657.1 280.195 573.5 209.881C559.5 206.987 539.9 213.57 573.5 263.05C607.1 312.531 619.167 371.56 621 394.89C620.5 430.878 603.6 513.056 540 553.856C476.4 594.655 442.833 619.685 434 627.1C429.333 648.078 417.4 690.035 407 690.035C394 690.035 349 699.801 325 657.483C321.833 648.078 331.3 625.364 394.5 609.738C400.833 607.749 416.6 600.624 429 588.036C441.4 575.449 390.167 588.579 363 596.717C336.5 596.717 278.4 600.949 258 617.877C237.6 634.804 202.833 635.419 188 633.61C163.167 634.876 104 627.534 66 588.036C28 548.539 40.1667 501.771 51 483.325C60.5 462.889 96.8 417.242 166 398.145C202.667 395.251 289.1 389.247 341.5 388.379C393.9 387.511 365.667 388.017 345 388.379C359.833 376.443 380.6 345.518 345 317.305L283.5 278.242C261 268.657 216.9 222.685 220.5 115.478C223.333 87.2651 235.8 24.8721 263 1H230.5Z" stroke="#BABD8D"/>
<path d="M265 181.126C251.8 90.846 294.167 24.1488 317 2.08521H342C278.8 108.425 291.333 185.285 305.5 210.423C312.333 227.604 338.8 265.98 390 282.04C441.2 298.099 442.333 363.241 436.5 393.805C429.333 416.592 400.4 465.638 342 479.527C283.6 493.416 213 490.74 185 487.665C130.2 498.082 137.5 531.069 148 546.26C156 552.228 178.5 563.513 204.5 560.909C230.5 558.305 300 538.484 331.5 528.899C338.667 527.633 364.1 521.195 408.5 505.569C452.9 489.944 479 424.549 486.5 393.805C488.5 354.199 483 270.321 445 251.657C407 232.993 383.833 216.391 377 210.423C369 204.998 354.7 181.343 361.5 130.126C368.3 78.9099 383.333 23.4254 390 2.08521H421L404 52.5421C399.333 95.4034 399.3 183.73 436.5 194.147C473.7 204.564 498.333 257.083 506 282.04C513.833 294.157 524.8 340.743 506 430.155C487.2 519.567 420.833 544.814 390 546.26C372.667 544.814 326.9 548.431 282.5 574.473C238.1 600.515 183 601.239 161 598.345C77.7999 575.775 77.3333 530.707 87.5 510.995C96.5 483.325 136.2 430.481 223 440.464C309.8 450.446 356.5 428.347 369 416.049C394 394.528 425.8 339.767 353 292.891C280.2 246.015 264 198.849 265 181.126Z" fill="#BABD8D" stroke="#BABD8D"/>
<path d="M553 444.262C571.4 391.309 557 325.986 547.5 299.944C558.333 325.444 578.5 385.124 572.5 419.847C566.5 454.57 557 450.591 553 444.262Z" fill="#BABD8D" stroke="#BABD8D"/>
<path d="M549.427 4.25508H547.5C548.136 3.72748 548.78 3.75235 549.427 4.25508H565C569.667 20.3507 576.2 59.1609 565 85.6372C562.281 58.9152 555.699 9.12889 549.427 4.25508Z" fill="#BABD8D"/>
<path d="M547.5 4.25508H565C569.667 20.3507 576.2 59.1609 565 85.6372C562 56.1588 554.3 -1.38741 547.5 4.25508Z" stroke="#BABD8D"/>
<path d="M525.5 1H495C507.8 8.37865 515.333 39.5209 517.5 54.1697C521.1 142.279 531 152.371 535.5 146.403C551.9 117.322 535.667 37.3507 525.5 1Z" fill="#BABD8D" stroke="#BABD8D"/>
<path d="M1093.5 56.8824C1087.9 43.8613 1088.5 19.2658 1089.5 8.5957H1130C1135.83 38.255 1146.7 104.518 1143.5 132.297C1140.3 160.075 1144.83 215.849 1147.5 240.263C1150.5 257.263 1159 294.627 1169 308.082C1179 321.537 1188.17 340.816 1191.5 348.773C1195.9 376.551 1201.67 391.092 1204 394.89C1222.8 432.651 1280.83 436.666 1307.5 433.953C1332.67 429.974 1383.6 412.577 1386 374.815C1388.4 337.054 1376.33 309.167 1370 299.944C1364 288.55 1348.3 263.593 1333.5 254.912C1318.7 246.232 1288.33 205.721 1275 186.551C1273.83 182.573 1268.2 166.152 1255 132.297C1241.8 98.4416 1243.17 35.7231 1245.5 8.5957H1267.5C1255.5 72.3993 1283.5 145.86 1299 174.615L1370 278.242C1379.67 289.274 1399.1 321.971 1399.5 364.507C1399.9 407.043 1363.33 433.953 1345 442.091C1331.83 446.07 1292.2 451.64 1239 442.091C1185.8 432.542 1161.83 381.326 1156.5 356.911L1130 278.242C1117.6 264.787 1111.5 203.551 1110 174.615C1106.83 140.796 1099.1 69.9036 1093.5 56.8824Z" fill="#BABD8D" stroke="#BABD8D"/>
<path d="M1182 89.9777C1178.4 76.9566 1180.5 29.5741 1182 7.5105L1209 10.2232C1205.8 15.4317 1210.33 84.0097 1213 117.648L1206.5 225.072C1217.5 284.21 1241 293.433 1247.5 298.316C1252.7 302.222 1304 309.348 1329 312.422C1338.67 318.029 1357 335.643 1353 361.252C1349 386.86 1316 392.9 1300 392.719C1286.67 390.549 1254.3 381.217 1231.5 361.252C1208.7 341.286 1215.67 337.741 1222 338.465L1260 355.284C1283 364.145 1328 376.551 1324 355.284C1320 334.016 1284.67 329.06 1267.5 329.241C1264.67 331.592 1251.6 331.52 1222 312.422C1192.4 293.325 1183 246.231 1182 225.072C1183.5 185.466 1185.6 102.999 1182 89.9777Z" fill="#BABD8D" stroke="#BABD8D"/>
<path d="M1246 200.115C1244.5 226.157 1255.2 278.242 1310 278.242C1297.83 271.912 1268 247.425 1246 200.115Z" fill="#BABD8D" stroke="#BABD8D"/>
<path d="M1386.5 68.2758C1386.83 56.3398 1397.8 28.2358 1439 11.3083H1506.5C1507.5 17.4572 1501.6 30.0805 1470 31.3826C1438.4 32.6847 1419.83 56.5206 1414.5 68.2758C1402.5 113.85 1446.5 149.115 1470 161.051C1481.5 167.02 1491.4 175.375 1439 161.051C1386.6 146.728 1382.17 93.233 1386.5 68.2758Z" fill="#BABD8D" stroke="#BABD8D"/>
<path d="M1464.5 69.3609C1515.7 177.87 1575.17 77.3183 1598.5 13.4785C1611.5 139.892 1464.5 176.243 1448.5 110.052C1435.7 57.0993 1453.83 60.861 1464.5 69.3609Z" fill="#BABD8D" stroke="#BABD8D"/>
<path d="M1517 42.7761C1536.6 26.2827 1539.5 13.4786 1538.5 9.13818H1565.5C1566.83 15.2871 1564.4 34.0954 1544 60.1377C1523.6 86.1799 1506.83 82.563 1501 77.4992C1498.17 72.7971 1497.4 59.2696 1517 42.7761Z" fill="#BABD8D" stroke="#BABD8D"/>
<path d="M57.5001 58.5101C73.5001 28.1275 74.8334 8.23408 73.5001 2.08521H1V121.988C18.2 161.486 8.16667 215.487 1 237.551V303.199C15 287.827 43.9001 245.906 47.5001 201.2C52.0001 145.318 37.5001 96.4885 57.5001 58.5101Z" fill="#BABD8D" stroke="#BABD8D"/>
<path d="M1787 284.752C1779.5 234.838 1911.5 227.785 1918 227.785V183.296C1859.33 184.562 1741.2 206.625 1738 284.752C1734.8 362.879 1856.67 352.028 1918 336.837V303.199C1876.83 313.688 1793 324.684 1787 284.752Z" fill="#BABD8D" stroke="#BABD8D"/>
</svg>
